<?xml version="1.0" standalone="no"?>
<!-- Created using Krita: https://krita.org -->
<svg xmlns="http://www.w3.org/2000/svg" 
    xmlns:xlink="http://www.w3.org/1999/xlink"
    xmlns:krita="http://krita.org/namespaces/svg/krita"
    xmlns:sodipodi="http://sodipodi.sourceforge.net/DTD/sodipodi-0.dtd"
    width="72pt"
    height="72pt"
    viewBox="0 0 72 72">
<defs/>
<path id="shape0" transform="matrix(0.140625 0 0 0.140625 6.96058234224716 5.83593786266144)" fill="#8c271e" stroke="#8c271e" stroke-width="0" stroke-linecap="square" stroke-linejoin="bevel" d="M414.003 137L330.188 42.54L216.003 12L216.132 98.227L312.516 168.258ZM197.053 98.227L190.003 0L82.9965 42.54L18.0025 142.25L100.669 168.222ZM149.093 291.841L264.091 291.841L299.601 182.471L206.592 114.873L113.583 182.472ZM146.971 310.92L88.3883 396.906L206.592 422.925L312.503 377.5L266.214 310.92ZM318.346 186.359L281.536 299.639L344.503 384L406.503 277.616L399.503 159ZM94.6585 186.359L0 154.722L6.50253 277.675L85.9135 367.561L131.469 299.699Z" sodipodi:nodetypes="cccccccccccccccccccccccccccccccccccc"/>
</svg>
